<svg width="123" height="64" viewBox="0 0 123 64" fill="none" xmlns="http://www.w3.org/2000/svg">
<path d="M99.504 23.025C98.172 23.025 97.1 24.363 97.1 26.023C97.1 27.687 98.172 29.025 99.504 29.025C100.828 29.025 101.9 27.687 101.9 26.023C101.9 24.363 100.828 23.025 99.504 23.025ZM82.497 23.025C81.174 23.025 80.1 24.362 80.1 26.023C80.1 27.687 81.174 29.025 82.497 29.025C83.828 29.025 84.9 27.687 84.9 26.023C84.9 24.362 83.828 23.025 82.497 23.025Z" fill="#E3F1BC"/>
<path d="M121 14.793C119.59 14.73 118.705 14.167 117.979 13.302C117.836 10.378 116.798 7.557 115.29 6.332C114.443 5.644 113.249 5.296 111.741 5.296C111.62 5.296 111.495 5.305 111.372 5.309C107.127 3.035 102.692 5.211 102.692 5.211C102.982 3.658 102.252 2.826 102.801 2C94.57 2 91.004 5.462 91 5.465C90.998 5.462 87.432 2 79.201 2C79.75 2.826 79.019 3.658 79.31 5.211C79.31 5.211 74.875 3.034 70.63 5.309C70.507 5.305 70.381 5.296 70.259 5.296C68.752 5.296 67.558 5.645 66.711 6.332C65.202 7.557 64.164 10.378 64.021 13.302C63.296 14.167 62.41 14.73 61 14.793C61 14.793 61.124 18.622 64.991 21.176C64.991 21.176 60.935 25.043 61.616 33.26C61.616 33.26 63.252 31.264 67.078 30.512C62.572 34.292 65.2 39.887 61.864 43.75C61.864 43.75 66.454 44.758 68.315 43.413C67.586 49.336 71.188 51.646 71.188 54.545C75.275 53.201 75.847 49.168 75.847 49.168C75.847 56.636 78.431 56.371 78.431 60.341C78.431 60.341 82.964 59.627 84.826 55.889C85.566 59.414 89.076 59.795 91 62H91.002C92.926 59.795 96.436 59.414 97.176 55.889C99.037 59.627 103.571 60.341 103.571 60.341C103.571 56.371 106.155 56.636 106.155 49.168C106.155 49.168 106.727 53.201 110.813 54.545C110.813 51.647 114.415 49.336 113.686 43.413C115.547 44.758 120.137 43.75 120.137 43.75C116.801 39.887 119.43 34.292 114.924 30.512C118.75 31.264 120.385 33.26 120.385 33.26C121.067 25.043 117.01 21.176 117.01 21.176C120.877 18.622 121 14.793 121 14.793ZM69.509 11.31C68.157 12.411 67.354 17.034 70.134 19.025C69.7969 19.6332 69.4791 20.2518 69.181 20.88C66.998 19.392 66.279 17.049 66.074 15.247C65.71 12.06 66.762 8.868 67.973 7.885C68.447 7.5 69.238 7.296 70.26 7.296C72.969 7.296 76.448 8.7 78.563 10.533C77.483 11.035 76.463 11.688 75.493 12.46C73.64 11.068 70.671 10.368 69.509 11.31ZM94.845 53.104C94.938 51.814 94.584 50.756 94.584 50.756C94.268 52.674 93.412 54.045 93.412 54.045C93.449 52.4 92.611 51.695 92.611 51.695C91.83 53.925 91.013 54.791 91.013 54.791C91.013 54.791 90.198 53.926 89.416 51.695C89.416 51.695 88.579 52.4 88.616 54.045C88.616 54.045 87.76 52.674 87.444 50.756C87.444 50.756 87.09 51.814 87.182 53.104C87.182 53.104 80.69 48.907 79.672 43.235C81.756 45.576 86.333 49.367 91.002 44.458C95.69 49.386 100.285 45.546 102.357 43.208C101.358 48.894 94.845 53.104 94.845 53.104ZM89.328 34.734C88.824 34.054 88.303 33.352 87.706 32.912C87.397 32.683 87.131 32.492 86.896 32.328C87.831 31.94 89.736 31.275 91.012 31.275C92.286 31.275 94.284 31.861 95.296 32.198C95.019 32.389 94.694 32.619 94.298 32.912C93.7 33.353 93.185 34.058 92.687 34.74C92.126 35.506 91.492 36.374 91.017 36.374H91.015C90.541 36.371 89.896 35.501 89.328 34.734ZM102.996 41.925L102.975 41.992L102.936 42.051C102.915 42.083 102.776 42.283 102.544 42.566C100.602 43.972 95.992 46.433 92 42.706V36.837L95.82 35.222C96.402 34.954 96.879 34.226 96.879 33.608L96.875 31.88C96.875 31.88 94.815 30.276 91.013 30.276C87.211 30.276 85.139 31.88 85.139 31.88L85.129 33.607C85.129 34.225 85.607 34.954 86.188 35.221L90 36.833V42.712C86.041 46.401 81.478 44.009 79.512 42.599C79.3647 42.4223 79.2249 42.2395 79.093 42.051L79.054 41.992L79.033 41.925C78.85 41.355 78.635 40.223 78.8 39.115C78.962 38.039 79.478 37.03 79.748 36.548C80.095 35.928 85.127 31.889 85.139 31.88C86.766 29.013 86.966 28.732 88.368 28.119C88.959 27.862 89.982 27.733 91.006 27.733C92.03 27.733 93.051 27.862 93.643 28.119C95.044 28.731 95.249 29.012 96.877 31.879C96.877 31.879 101.936 35.927 102.283 36.548C102.553 37.03 103.07 38.041 103.23 39.115C103.395 40.223 103.179 41.354 102.996 41.925ZM107.932 28.652C107.47 30.824 104.385 33.006 103.187 36.138C103.175 36.115 103.166 36.081 103.155 36.059C102.864 35.54 101.009 33.902 97.636 31.189C96.071 28.438 95.723 27.937 94.041 27.203C93.067 26.778 91.592 26.733 91.004 26.733C90.414 26.733 88.94 26.778 87.967 27.202C86.278 27.94 85.934 28.441 84.355 31.22C81.007 33.915 79.164 35.543 78.875 36.06C78.862 36.082 78.854 36.118 78.842 36.142C77.638 33.009 74.531 30.826 74.071 28.653C73.601 26.439 75.622 21.397 77.525 20.332C77.866 20.143 79.07 20.332 79.07 20.332C79.426 19.856 81.355 14.291 86.388 13.373C89.376 12.827 91.013 15.381 91.013 15.381C91.013 15.381 92.628 12.827 95.617 13.373C100.648 14.291 102.578 19.856 102.935 20.332C102.935 20.332 104.138 20.143 104.48 20.332C106.381 21.396 108.402 26.438 107.932 28.652ZM115.928 15.248C115.723 17.05 115.004 19.392 112.821 20.88C112.523 20.2518 112.205 19.6332 111.868 19.025C114.649 17.034 113.845 12.411 112.493 11.31C111.331 10.369 108.362 11.069 106.511 12.46C105.54 11.689 104.521 11.035 103.441 10.533C105.554 8.7 109.033 7.296 111.742 7.296C112.765 7.296 113.556 7.5 114.031 7.885C115.24 8.868 116.293 12.062 115.928 15.248Z" fill="#E3F1BC"/>
<path d="M6.79688 28C7.04688 28 7.28125 27.9714 7.5 27.9141C7.71875 27.8516 7.92188 27.7734 8.10938 27.6797C8.29688 27.5859 8.46615 27.4792 8.61719 27.3594C8.77344 27.2396 8.90885 27.1198 9.02344 27H10.3281V31H0.796875V27.6094L1.79688 27.4141V22.5859L0.796875 22.3906V19H7.79688V22.3906L6.79688 22.5859V28ZM11.3906 19H18.3906V22.3906L17.3906 22.5859V27.4141L18.3906 27.6094V31H11.3906V27.6094L12.3906 27.4141V22.5859L11.3906 22.3906V19ZM26.5703 31.1406C25.9349 31.1406 25.3203 31.1016 24.7266 31.0234C24.138 30.9453 23.5833 30.7995 23.0625 30.5859C22.5469 30.3724 22.0755 30.099 21.6484 29.7656C21.2214 29.4271 20.8542 29.0234 20.5469 28.5547C20.2396 28.0807 20 27.5391 19.8281 26.9297C19.6615 26.3151 19.5781 25.625 19.5781 24.8594C19.5781 24.1406 19.6615 23.4922 19.8281 22.9141C19.9948 22.3359 20.2292 21.8229 20.5312 21.375C20.8333 20.9271 21.1953 20.5417 21.6172 20.2188C22.0443 19.8958 22.5156 19.6328 23.0312 19.4297C23.5521 19.2214 24.1094 19.0677 24.7031 18.9688C25.3021 18.8698 25.9245 18.8203 26.5703 18.8203C27.2161 18.8203 27.8385 18.8698 28.4375 18.9688C29.0365 19.0677 29.5964 19.2214 30.1172 19.4297C30.638 19.638 31.1094 19.9036 31.5312 20.2266C31.9583 20.5495 32.3229 20.9349 32.625 21.3828C32.9271 21.8307 33.1615 22.3438 33.3281 22.9219C33.4948 23.4948 33.5781 24.1406 33.5781 24.8594C33.5781 25.9844 33.3932 26.9505 33.0234 27.7578C32.6589 28.5599 32.1589 29.2161 31.5234 29.7266C30.888 30.237 30.1458 30.6016 29.2969 30.8203C28.4479 31.0339 27.5391 31.1406 26.5703 31.1406ZM26.5703 22.3906C26.237 22.3906 25.9557 22.4349 25.7266 22.5234C25.5026 22.6068 25.3151 22.7188 25.1641 22.8594C25.0182 23 24.9062 23.1589 24.8281 23.3359C24.75 23.513 24.6901 23.6927 24.6484 23.875C24.612 24.0573 24.5911 24.2344 24.5859 24.4062C24.5807 24.5781 24.5781 24.7292 24.5781 24.8594C24.5781 24.9896 24.5807 25.1406 24.5859 25.3125C24.5911 25.4844 24.612 25.6641 24.6484 25.8516C24.6901 26.0339 24.75 26.2161 24.8281 26.3984C24.9062 26.5807 25.0182 26.7448 25.1641 26.8906C25.3151 27.0312 25.5026 27.1458 25.7266 27.2344C25.9557 27.3229 26.237 27.3672 26.5703 27.3672C26.9036 27.3672 27.1823 27.3229 27.4062 27.2344C27.6354 27.1458 27.8255 27.0312 27.9766 26.8906C28.1276 26.7448 28.2422 26.5807 28.3203 26.3984C28.4036 26.2161 28.4635 26.0339 28.5 25.8516C28.5365 25.6641 28.5573 25.4844 28.5625 25.3125C28.5729 25.1406 28.5781 24.9896 28.5781 24.8594C28.5781 24.7292 28.5729 24.5781 28.5625 24.4062C28.5573 24.2344 28.5365 24.0573 28.5 23.875C28.4635 23.6927 28.4036 23.513 28.3203 23.3359C28.2422 23.1589 28.1276 23 27.9766 22.8594C27.8255 22.7188 27.6354 22.6068 27.4062 22.5234C27.1823 22.4349 26.9036 22.3906 26.5703 22.3906ZM38.7656 25.1484V27.4141L39.7656 27.6016V31H34.7656V27.6094L35.7656 27.4141V22.5859L34.7656 22.3906V19H40.7656L44.7656 25.1484V22.6016L43.7656 22.3906V19H48.7656V22.3906L47.7656 22.5859V27.4141L48.7656 27.6094V31H42.7578L38.7656 25.1484ZM0.796875 37H7.60156C8.48698 37 9.25521 37.0417 9.90625 37.125C10.5573 37.2031 11.112 37.3177 11.5703 37.4688C12.0286 37.6198 12.401 37.8047 12.6875 38.0234C12.9792 38.2422 13.2057 38.487 13.3672 38.7578C13.5339 39.0286 13.6458 39.3255 13.7031 39.6484C13.7656 39.9714 13.7969 40.3151 13.7969 40.6797C13.7969 41.0547 13.7604 41.4062 13.6875 41.7344C13.6198 42.0625 13.4922 42.3646 13.3047 42.6406C13.1172 42.9115 12.8568 43.1562 12.5234 43.375C12.1953 43.5938 11.7708 43.7786 11.25 43.9297C10.7344 44.0755 10.1094 44.1901 9.375 44.2734C8.64583 44.3516 7.78646 44.3906 6.79688 44.3906V45.4141L7.79688 45.6094V49H0.796875V45.6094L1.79688 45.4141V40.5859L0.796875 40.3906V37ZM6.79688 42.2422C7.09896 42.2422 7.3724 42.2266 7.61719 42.1953C7.86719 42.1641 8.07812 42.099 8.25 42C8.42708 41.8958 8.5625 41.7474 8.65625 41.5547C8.75 41.362 8.79688 41.1016 8.79688 40.7734C8.79688 40.4557 8.75 40.2031 8.65625 40.0156C8.5625 39.8229 8.42708 39.6771 8.25 39.5781C8.07812 39.4792 7.86719 39.4141 7.61719 39.3828C7.3724 39.3516 7.09896 39.3359 6.79688 39.3359V42.2422ZM22.0859 49L21.6641 46.9844H18.3984L17.9844 49H13.5391V45.0625L14.5 44.8672L16.8047 37H23.2578L25.5703 44.8672L26.5312 45.0625V49H22.0859ZM19.0703 44.3047H20.9922L20.0312 39.7812L19.0703 44.3047ZM40.7734 49H35.8047C35.6484 48.7031 35.487 48.388 35.3203 48.0547C35.1536 47.7214 34.9922 47.375 34.8359 47.0156C34.6797 46.6562 34.5339 46.2839 34.3984 45.8984C34.263 45.513 34.1484 45.1172 34.0547 44.7109H33.7812V49H27.7812V45.6094L28.7812 45.4141V40.5859L27.7812 40.3906V37H34.5859C35.487 37 36.2656 37.0417 36.9219 37.125C37.5781 37.2083 38.1354 37.3281 38.5938 37.4844C39.0521 37.6354 39.4219 37.8229 39.7031 38.0469C39.9896 38.2656 40.2109 38.5156 40.3672 38.7969C40.5286 39.0729 40.6354 39.3776 40.6875 39.7109C40.7448 40.0391 40.7734 40.388 40.7734 40.7578C40.7734 41.1328 40.737 41.474 40.6641 41.7812C40.5964 42.0833 40.474 42.362 40.2969 42.6172C40.1198 42.8724 39.8776 43.1068 39.5703 43.3203C39.263 43.5286 38.8724 43.7266 38.3984 43.9141C38.4974 44.1224 38.6458 44.3672 38.8438 44.6484C39.0417 44.9245 39.2552 45.2083 39.4844 45.5C39.7135 45.7865 39.9427 46.0677 40.1719 46.3438C40.4062 46.6146 40.6068 46.8464 40.7734 47.0391V49ZM33.7812 42.4062C34.0833 42.4062 34.3568 42.3932 34.6016 42.3672C34.8516 42.3411 35.0625 42.2812 35.2344 42.1875C35.4115 42.0938 35.5469 41.9557 35.6406 41.7734C35.7344 41.5911 35.7812 41.3464 35.7812 41.0391C35.7812 40.737 35.7344 40.4974 35.6406 40.3203C35.5469 40.138 35.4115 39.9974 35.2344 39.8984C35.0625 39.7995 34.8516 39.7344 34.6016 39.7031C34.3568 39.6719 34.0833 39.6562 33.7812 39.6562V42.4062ZM56.5625 38.9219C56.3125 39.1042 56.0677 39.2995 55.8281 39.5078C55.5885 39.7161 55.3594 39.9297 55.1406 40.1484C54.9219 40.3672 54.7135 40.5859 54.5156 40.8047C54.3229 41.0234 54.1458 41.2344 53.9844 41.4375C53.7865 41.6771 53.599 41.9141 53.4219 42.1484C53.2448 42.3828 53.0755 42.6198 52.9141 42.8594C53.1328 43.1615 53.349 43.4557 53.5625 43.7422C53.7812 44.0234 54 44.3047 54.2188 44.5859C54.401 44.8203 54.5911 45.0625 54.7891 45.3125C54.9922 45.5573 55.1953 45.7969 55.3984 46.0312C55.6016 46.2656 55.7995 46.487 55.9922 46.6953C56.1901 46.8984 56.375 47.0755 56.5469 47.2266L56.5547 49H50.3672L48.1562 43.9922V49H42.1562V45.6094L43.1562 45.4141V40.5859L42.1562 40.3906V37H48.1562V41.8125L50.3672 37H56.5547L56.5625 38.9219Z" fill="#E3F1BC"/>
</svg>
