<svg xmlns="http://www.w3.org/2000/svg" xmlns:xlink="http://www.w3.org/1999/xlink" width="350" zoomAndPan="magnify" viewBox="0 0 262.5 412.499996" height="550" preserveAspectRatio="xMidYMid meet" version="1.0"><defs><clipPath id="5200e6f88c"><path d="M 0 0.144531 L 262 0.144531 L 262 411.859375 L 0 411.859375 Z M 0 0.144531 " clip-rule="nonzero"/></clipPath></defs><g clip-path="url(#5200e6f88c)"><path fill="#ffffff" d="M 0 0.144531 L 262 0.144531 L 262 411.859375 L 0 411.859375 Z M 0 0.144531 " fill-opacity="1" fill-rule="nonzero"/><path fill="#ffffff" d="M 0 0.144531 L 262 0.144531 L 262 411.859375 L 0 411.859375 Z M 0 0.144531 " fill-opacity="1" fill-rule="nonzero"/></g><path fill="#063718" d="M 167.398438 197.554688 C 166.125 197.554688 165.101562 198.835938 165.101562 200.429688 C 165.101562 202.023438 166.125 203.308594 167.398438 203.308594 C 168.664062 203.308594 169.6875 202.023438 169.6875 200.429688 C 169.6875 198.835938 168.664062 197.554688 167.398438 197.554688 Z M 151.148438 197.554688 C 149.886719 197.554688 148.859375 198.835938 148.859375 200.429688 C 148.859375 202.023438 149.886719 203.308594 151.148438 203.308594 C 152.421875 203.308594 153.445312 202.023438 153.445312 200.429688 C 153.445312 198.835938 152.421875 197.554688 151.148438 197.554688 Z M 151.148438 197.554688 " fill-opacity="1" fill-rule="nonzero"/><path fill="#063718" d="M 187.9375 189.660156 C 186.589844 189.597656 185.742188 189.058594 185.050781 188.226562 C 184.914062 185.421875 183.921875 182.71875 182.480469 181.542969 C 181.671875 180.882812 180.53125 180.550781 179.089844 180.550781 C 178.972656 180.550781 178.855469 180.558594 178.738281 180.5625 C 174.679688 178.382812 170.445312 180.46875 170.445312 180.46875 C 170.722656 178.980469 170.023438 178.179688 170.546875 177.386719 C 162.683594 177.386719 159.277344 180.707031 159.273438 180.710938 C 159.269531 180.707031 155.863281 177.386719 148 177.386719 C 148.523438 178.179688 147.824219 178.980469 148.105469 180.46875 C 148.105469 180.46875 143.867188 178.378906 139.8125 180.5625 C 139.695312 180.558594 139.574219 180.550781 139.457031 180.550781 C 138.015625 180.550781 136.875 180.882812 136.066406 181.542969 C 134.625 182.71875 133.632812 185.421875 133.496094 188.226562 C 132.804688 189.058594 131.957031 189.597656 130.609375 189.660156 C 130.609375 189.660156 130.730469 193.332031 134.421875 195.78125 C 134.421875 195.78125 130.546875 199.488281 131.199219 207.371094 C 131.199219 207.371094 132.761719 205.457031 136.417969 204.734375 C 132.113281 208.359375 134.625 213.726562 131.4375 217.429688 C 131.4375 217.429688 135.820312 218.398438 137.597656 217.109375 C 136.902344 222.789062 140.34375 225.003906 140.34375 227.785156 C 144.25 226.496094 144.796875 222.628906 144.796875 222.628906 C 144.796875 229.789062 147.265625 229.535156 147.265625 233.34375 C 147.265625 233.34375 151.59375 232.660156 153.375 229.074219 C 154.082031 232.453125 157.433594 232.820312 159.273438 234.933594 C 161.113281 232.820312 164.464844 232.453125 165.171875 229.074219 C 166.953125 232.660156 171.285156 233.34375 171.285156 233.34375 C 171.285156 229.535156 173.753906 229.789062 173.753906 222.628906 C 173.753906 222.628906 174.300781 226.496094 178.203125 227.785156 C 178.203125 225.003906 181.644531 222.789062 180.949219 217.109375 C 182.726562 218.398438 187.109375 217.429688 187.109375 217.429688 C 183.921875 213.726562 186.4375 208.359375 182.128906 204.734375 C 185.785156 205.457031 187.347656 207.371094 187.347656 207.371094 C 188 199.488281 184.125 195.78125 184.125 195.78125 C 187.816406 193.332031 187.9375 189.660156 187.9375 189.660156 Z M 138.738281 186.316406 C 137.449219 187.375 136.679688 191.808594 139.335938 193.71875 C 139.015625 194.300781 138.710938 194.894531 138.425781 195.496094 C 136.339844 194.070312 135.652344 191.820312 135.457031 190.09375 C 135.109375 187.035156 136.117188 183.976562 137.273438 183.03125 C 137.726562 182.664062 138.480469 182.46875 139.457031 182.46875 C 142.046875 182.46875 145.371094 183.8125 147.390625 185.574219 C 146.359375 186.054688 145.382812 186.679688 144.457031 187.421875 C 142.6875 186.085938 139.851562 185.414062 138.738281 186.316406 Z M 162.945312 226.402344 C 163.035156 225.164062 162.695312 224.152344 162.695312 224.152344 C 162.394531 225.992188 161.578125 227.304688 161.578125 227.304688 C 161.613281 225.726562 160.8125 225.050781 160.8125 225.050781 C 160.066406 227.191406 159.285156 228.019531 159.285156 228.019531 C 159.285156 228.019531 158.507812 227.191406 157.757812 225.050781 C 157.757812 225.050781 156.960938 225.726562 156.996094 227.304688 C 156.996094 227.304688 156.175781 225.992188 155.875 224.152344 C 155.875 224.152344 155.539062 225.164062 155.625 226.402344 C 155.625 226.402344 149.421875 222.378906 148.449219 216.9375 C 150.441406 219.183594 154.8125 222.820312 159.273438 218.109375 C 163.753906 222.835938 168.144531 219.152344 170.125 216.910156 C 169.167969 222.363281 162.945312 226.402344 162.945312 226.402344 Z M 157.675781 208.785156 C 157.195312 208.132812 156.695312 207.457031 156.125 207.035156 C 155.832031 206.816406 155.578125 206.632812 155.351562 206.476562 C 156.246094 206.105469 158.066406 205.464844 159.285156 205.464844 C 160.5 205.464844 162.410156 206.027344 163.378906 206.351562 C 163.113281 206.535156 162.800781 206.753906 162.425781 207.035156 C 161.851562 207.460938 161.359375 208.136719 160.886719 208.789062 C 160.347656 209.523438 159.742188 210.355469 159.289062 210.355469 C 158.835938 210.355469 158.21875 209.519531 157.675781 208.785156 Z M 170.734375 215.679688 L 170.714844 215.746094 L 170.675781 215.800781 C 170.65625 215.832031 170.523438 216.023438 170.300781 216.296875 C 168.445312 217.644531 164.042969 220.003906 160.226562 216.429688 L 160.226562 210.800781 L 163.878906 209.253906 C 164.433594 208.996094 164.890625 208.296875 164.890625 207.703125 L 164.886719 206.046875 C 164.886719 206.046875 162.917969 204.507812 159.285156 204.507812 C 155.652344 204.507812 153.671875 206.046875 153.671875 206.046875 L 153.664062 207.703125 C 153.664062 208.296875 154.121094 208.996094 154.675781 209.25 L 158.316406 210.796875 L 158.316406 216.4375 C 154.535156 219.972656 150.175781 217.679688 148.296875 216.328125 C 148.15625 216.15625 148.023438 215.984375 147.898438 215.800781 L 147.859375 215.746094 L 147.839844 215.679688 C 147.664062 215.132812 147.460938 214.046875 147.617188 212.984375 C 147.773438 211.953125 148.265625 210.984375 148.523438 210.523438 C 148.855469 209.929688 153.660156 206.054688 153.671875 206.046875 C 155.226562 203.296875 155.417969 203.027344 156.757812 202.4375 C 157.324219 202.191406 158.300781 202.070312 159.277344 202.070312 C 160.257812 202.070312 161.234375 202.191406 161.796875 202.4375 C 163.136719 203.027344 163.332031 203.296875 164.886719 206.046875 C 164.886719 206.046875 169.722656 209.929688 170.054688 210.523438 C 170.3125 210.984375 170.804688 211.957031 170.957031 212.984375 C 171.117188 214.046875 170.910156 215.132812 170.734375 215.679688 Z M 175.449219 202.949219 C 175.007812 205.035156 172.0625 207.125 170.917969 210.128906 C 170.90625 210.109375 170.898438 210.074219 170.886719 210.054688 C 170.609375 209.558594 168.835938 207.984375 165.613281 205.382812 C 164.117188 202.746094 163.785156 202.265625 162.179688 201.5625 C 161.246094 201.152344 159.839844 201.109375 159.277344 201.109375 C 158.714844 201.109375 157.304688 201.152344 156.375 201.558594 C 154.761719 202.269531 154.433594 202.75 152.925781 205.414062 C 149.726562 208 147.964844 209.558594 147.6875 210.054688 C 147.675781 210.078125 147.667969 210.113281 147.65625 210.132812 C 146.507812 207.128906 143.539062 205.035156 143.097656 202.953125 C 142.648438 200.828125 144.582031 195.992188 146.398438 194.972656 C 146.722656 194.789062 147.875 194.972656 147.875 194.972656 C 148.214844 194.515625 150.058594 189.175781 154.867188 188.296875 C 157.722656 187.773438 159.285156 190.222656 159.285156 190.222656 C 159.285156 190.222656 160.828125 187.773438 163.683594 188.296875 C 168.492188 189.175781 170.335938 194.515625 170.675781 194.972656 C 170.675781 194.972656 171.824219 194.789062 172.152344 194.972656 C 173.96875 195.992188 175.898438 200.828125 175.449219 202.949219 Z M 183.089844 190.09375 C 182.894531 191.824219 182.207031 194.070312 180.121094 195.496094 C 179.835938 194.894531 179.53125 194.300781 179.210938 193.71875 C 181.867188 191.808594 181.097656 187.375 179.808594 186.316406 C 178.699219 185.414062 175.859375 186.085938 174.09375 187.421875 C 173.164062 186.679688 172.191406 186.054688 171.160156 185.574219 C 173.179688 183.8125 176.503906 182.46875 179.089844 182.46875 C 180.066406 182.46875 180.824219 182.664062 181.277344 183.03125 C 182.433594 183.976562 183.4375 187.039062 183.089844 190.09375 Z M 183.089844 190.09375 " fill-opacity="1" fill-rule="nonzero"/><path fill="#063718" d="M 78.824219 202.324219 C 79.0625 202.324219 79.285156 202.296875 79.496094 202.242188 C 79.703125 202.183594 79.898438 202.109375 80.078125 202.019531 C 80.257812 201.929688 80.417969 201.824219 80.5625 201.710938 C 80.710938 201.597656 80.839844 201.480469 80.949219 201.367188 L 82.199219 201.367188 L 82.199219 205.203125 L 73.089844 205.203125 L 73.089844 201.949219 L 74.046875 201.761719 L 74.046875 197.132812 L 73.089844 196.945312 L 73.089844 193.691406 L 79.777344 193.691406 L 79.777344 196.945312 L 78.824219 197.132812 Z M 83.210938 193.691406 L 89.902344 193.691406 L 89.902344 196.945312 L 88.945312 197.132812 L 88.945312 201.761719 L 89.902344 201.949219 L 89.902344 205.203125 L 83.210938 205.203125 L 83.210938 201.949219 L 84.167969 201.761719 L 84.167969 197.132812 L 83.210938 196.945312 Z M 97.714844 205.335938 C 97.109375 205.335938 96.519531 205.300781 95.953125 205.226562 C 95.390625 205.148438 94.863281 205.011719 94.363281 204.804688 C 93.871094 204.601562 93.421875 204.339844 93.011719 204.019531 C 92.605469 203.695312 92.253906 203.308594 91.960938 202.855469 C 91.667969 202.402344 91.4375 201.882812 91.273438 201.296875 C 91.113281 200.710938 91.035156 200.046875 91.035156 199.3125 C 91.035156 198.625 91.113281 198 91.273438 197.449219 C 91.433594 196.894531 91.65625 196.402344 91.945312 195.972656 C 92.234375 195.542969 92.582031 195.171875 92.984375 194.863281 C 93.390625 194.550781 93.839844 194.300781 94.335938 194.105469 C 94.832031 193.90625 95.363281 193.757812 95.929688 193.664062 C 96.503906 193.570312 97.097656 193.519531 97.714844 193.519531 C 98.332031 193.519531 98.925781 193.570312 99.5 193.664062 C 100.070312 193.757812 100.605469 193.90625 101.105469 194.105469 C 101.601562 194.304688 102.050781 194.558594 102.457031 194.871094 C 102.863281 195.179688 103.210938 195.550781 103.5 195.980469 C 103.789062 196.410156 104.011719 196.898438 104.171875 197.453125 C 104.332031 198.003906 104.410156 198.625 104.410156 199.3125 C 104.410156 200.390625 104.234375 201.320312 103.882812 202.09375 C 103.53125 202.863281 103.054688 203.492188 102.449219 203.980469 C 101.839844 204.472656 101.132812 204.820312 100.320312 205.03125 C 99.507812 205.234375 98.640625 205.335938 97.714844 205.335938 Z M 97.714844 196.945312 C 97.398438 196.945312 97.128906 196.988281 96.910156 197.074219 C 96.695312 197.152344 96.515625 197.261719 96.371094 197.394531 C 96.234375 197.53125 96.125 197.683594 96.050781 197.851562 C 95.976562 198.023438 95.917969 198.195312 95.878906 198.367188 C 95.84375 198.542969 95.824219 198.714844 95.820312 198.878906 C 95.816406 199.042969 95.8125 199.1875 95.8125 199.3125 C 95.8125 199.4375 95.816406 199.582031 95.820312 199.746094 C 95.824219 199.914062 95.84375 200.085938 95.878906 200.265625 C 95.917969 200.441406 95.976562 200.613281 96.050781 200.789062 C 96.125 200.964844 96.234375 201.121094 96.371094 201.261719 C 96.515625 201.394531 96.695312 201.507812 96.910156 201.589844 C 97.128906 201.675781 97.398438 201.71875 97.714844 201.71875 C 98.035156 201.71875 98.300781 201.675781 98.515625 201.589844 C 98.734375 201.507812 98.914062 201.394531 99.058594 201.261719 C 99.203125 201.121094 99.3125 200.964844 99.386719 200.789062 C 99.46875 200.613281 99.523438 200.441406 99.558594 200.265625 C 99.59375 200.085938 99.613281 199.914062 99.617188 199.746094 C 99.628906 199.582031 99.632812 199.4375 99.632812 199.3125 C 99.632812 199.1875 99.628906 199.042969 99.617188 198.878906 C 99.613281 198.714844 99.59375 198.542969 99.558594 198.367188 C 99.523438 198.195312 99.46875 198.023438 99.386719 197.851562 C 99.3125 197.683594 99.203125 197.53125 99.058594 197.394531 C 98.914062 197.261719 98.734375 197.152344 98.515625 197.074219 C 98.300781 196.988281 98.035156 196.945312 97.714844 196.945312 Z M 109.367188 199.589844 L 109.367188 201.761719 L 110.324219 201.941406 L 110.324219 205.203125 L 105.546875 205.203125 L 105.546875 201.949219 L 106.5 201.761719 L 106.5 197.132812 L 105.546875 196.945312 L 105.546875 193.691406 L 111.277344 193.691406 L 115.101562 199.589844 L 115.101562 197.148438 L 114.144531 196.945312 L 114.144531 193.691406 L 118.921875 193.691406 L 118.921875 196.945312 L 117.964844 197.132812 L 117.964844 201.761719 L 118.921875 201.949219 L 118.921875 205.203125 L 113.179688 205.203125 Z M 73.089844 210.957031 L 79.59375 210.957031 C 80.4375 210.957031 81.171875 210.996094 81.792969 211.078125 C 82.417969 211.152344 82.945312 211.261719 83.382812 211.40625 C 83.820312 211.550781 84.179688 211.730469 84.453125 211.9375 C 84.730469 212.148438 84.945312 212.382812 85.101562 212.644531 C 85.261719 212.902344 85.367188 213.1875 85.421875 213.496094 C 85.480469 213.808594 85.511719 214.136719 85.511719 214.488281 C 85.511719 214.847656 85.476562 215.183594 85.40625 215.5 C 85.34375 215.8125 85.21875 216.101562 85.042969 216.367188 C 84.863281 216.628906 84.613281 216.863281 84.292969 217.070312 C 83.980469 217.28125 83.574219 217.457031 83.078125 217.605469 C 82.585938 217.742188 81.988281 217.851562 81.285156 217.933594 C 80.589844 218.007812 79.769531 218.046875 78.824219 218.046875 L 78.824219 219.027344 L 79.777344 219.214844 L 79.777344 222.464844 L 73.089844 222.464844 L 73.089844 219.214844 L 74.046875 219.027344 L 74.046875 214.398438 L 73.089844 214.210938 Z M 78.824219 215.984375 C 79.113281 215.984375 79.375 215.96875 79.605469 215.941406 C 79.847656 215.910156 80.046875 215.847656 80.210938 215.753906 C 80.382812 215.652344 80.511719 215.511719 80.601562 215.324219 C 80.691406 215.140625 80.734375 214.890625 80.734375 214.578125 C 80.734375 214.273438 80.691406 214.03125 80.601562 213.847656 C 80.511719 213.664062 80.382812 213.523438 80.210938 213.429688 C 80.046875 213.335938 79.847656 213.273438 79.605469 213.242188 C 79.375 213.210938 79.113281 213.199219 78.824219 213.199219 Z M 93.429688 222.464844 L 93.027344 220.535156 L 89.90625 220.535156 L 89.511719 222.464844 L 85.265625 222.464844 L 85.265625 218.691406 L 86.183594 218.503906 L 88.386719 210.957031 L 94.550781 210.957031 L 96.761719 218.503906 L 97.679688 218.691406 L 97.679688 222.464844 Z M 90.550781 217.964844 L 92.386719 217.964844 L 91.46875 213.625 Z M 111.285156 222.464844 L 106.539062 222.464844 C 106.390625 222.183594 106.234375 221.878906 106.074219 221.558594 C 105.917969 221.242188 105.761719 220.90625 105.613281 220.5625 C 105.464844 220.21875 105.324219 219.863281 105.195312 219.492188 C 105.066406 219.121094 104.957031 218.742188 104.867188 218.351562 L 104.605469 218.351562 L 104.605469 222.464844 L 98.871094 222.464844 L 98.871094 219.214844 L 99.828125 219.027344 L 99.828125 214.398438 L 98.871094 214.210938 L 98.871094 210.957031 L 105.375 210.957031 C 106.234375 210.957031 106.980469 210.996094 107.605469 211.078125 C 108.234375 211.15625 108.765625 211.273438 109.203125 211.421875 C 109.640625 211.566406 109.996094 211.746094 110.261719 211.960938 C 110.535156 212.171875 110.75 212.410156 110.898438 212.679688 C 111.050781 212.945312 111.152344 213.238281 111.203125 213.558594 C 111.257812 213.871094 111.285156 214.207031 111.285156 214.5625 C 111.285156 214.921875 111.25 215.25 111.179688 215.542969 C 111.117188 215.832031 111 216.101562 110.832031 216.34375 C 110.660156 216.589844 110.429688 216.8125 110.136719 217.019531 C 109.84375 217.21875 109.46875 217.410156 109.015625 217.589844 C 109.109375 217.789062 109.253906 218.023438 109.441406 218.292969 C 109.632812 218.558594 109.835938 218.828125 110.054688 219.109375 C 110.273438 219.382812 110.492188 219.652344 110.710938 219.917969 C 110.933594 220.179688 111.125 220.402344 111.285156 220.585938 Z M 104.605469 216.140625 C 104.894531 216.140625 105.15625 216.128906 105.390625 216.105469 C 105.628906 216.078125 105.828125 216.023438 105.992188 215.933594 C 106.164062 215.84375 106.292969 215.710938 106.382812 215.535156 C 106.472656 215.359375 106.515625 215.125 106.515625 214.832031 C 106.515625 214.542969 106.472656 214.3125 106.382812 214.140625 C 106.292969 213.96875 106.164062 213.832031 105.992188 213.738281 C 105.828125 213.640625 105.628906 213.578125 105.390625 213.550781 C 105.15625 213.519531 104.894531 213.503906 104.605469 213.503906 Z M 126.371094 212.800781 C 126.132812 212.976562 125.898438 213.164062 125.667969 213.363281 C 125.441406 213.5625 125.222656 213.765625 125.011719 213.976562 C 124.804688 214.1875 124.605469 214.398438 124.414062 214.605469 C 124.230469 214.816406 124.0625 215.019531 123.90625 215.214844 C 123.71875 215.441406 123.539062 215.671875 123.371094 215.894531 C 123.199219 216.121094 123.039062 216.347656 122.886719 216.578125 C 123.09375 216.867188 123.300781 217.148438 123.503906 217.421875 C 123.714844 217.695312 123.921875 217.964844 124.132812 218.234375 C 124.304688 218.457031 124.488281 218.691406 124.675781 218.929688 C 124.871094 219.164062 125.066406 219.394531 125.257812 219.621094 C 125.453125 219.84375 125.640625 220.054688 125.824219 220.257812 C 126.015625 220.449219 126.191406 220.621094 126.355469 220.765625 L 126.363281 222.464844 L 120.453125 222.464844 L 118.339844 217.664062 L 118.339844 222.464844 L 112.605469 222.464844 L 112.605469 219.214844 L 113.5625 219.027344 L 113.5625 214.398438 L 112.605469 214.210938 L 112.605469 210.957031 L 118.339844 210.957031 L 118.339844 215.574219 L 120.453125 210.957031 L 126.363281 210.957031 Z M 126.371094 212.800781 " fill-opacity="1" fill-rule="nonzero"/></svg>