<?xml version="1.0" encoding="iso-8859-1"?>
<!-- Uploaded to: SVG Repo, www.svgrepo.com, Generator: SVG Repo Mixer Tools -->
<svg fill="#063718" height="800px" width="800px" version="1.1" id="Layer_1" xmlns="http://www.w3.org/2000/svg" xmlns:xlink="http://www.w3.org/1999/xlink" 
	 viewBox="0 0 512.001 512.001" xml:space="preserve">
<g>
	<g>
		<path d="M428.781,172.328c-2.46-12.295-4.171-23.668-11.313-38.755c-9.711-20.514-24.836-36.913-43.065-48.449
			c-27.27-17.258-59.531-22.452-90.842-14.624l-27.595,6.898L228.372,70.5c-31.308-7.829-63.57-2.632-90.842,14.624
			c-15.3,9.683-27.842,22.412-37.021,37.31c-12.178,19.764-14.599,36.108-17.356,49.894c-7.681,38.406,4.266,77.866,31.961,105.559
			l23.917,23.918c-0.001,0.072,0.066,8.952,0.066,13.605c0,22.125,14.096,40.318,33.503,47.257v10.202
			c0,27.618,22.358,50.087,49.976,50.087h66.783c27.618,0,50.087-22.469,50.087-50.087v-10.193
			c19.159-6.849,33.391-24.894,33.391-47.265v-13.539l23.984-23.984C424.514,250.195,436.462,210.734,428.781,172.328z
			 M306.165,372.87c0,9.206-7.601,16.696-16.807,16.696h-66.783c-9.206,0-16.696-7.49-16.696-16.696v-10.227l50.087-16.696
			l50.198,16.696V372.87z M373.209,254.277l-7.118,7.118c-3.635-8.523-9.199-16.961-17.705-25.466
			c-6.52-6.521-17.091-6.519-23.611,0c-6.52,6.519-6.52,17.09,0,23.611c13.223,13.223,14.67,24.59,14.67,45.645v10.227
			c0,11.412-11.156,19.447-21.975,15.839l-56.223-18.741c-3.427-1.141-7.132-1.141-10.559,0l-56.223,18.741
			c-10.826,3.609-21.975-4.432-21.975-15.839v-17.409c0.436-16.626,2.954-26.828,14.589-38.462c6.519-6.52,6.519-17.091,0-23.611
			c-6.52-6.519-17.091-6.519-23.611,0c-8.486,8.487-14.045,16.905-17.681,25.409l-7.059-7.059
			c-19.781-19.78-28.315-47.968-22.83-75.399c3.009-15.045,6.88-44.901,39.491-65.537c19.196-12.148,42.199-16.118,64.887-10.447
			c34.137,8.534,34.399,9.248,39.743,7.91l31.645-7.91c22.365-5.586,45.408-1.88,64.887,10.447
			c32.569,20.609,36.521,50.691,39.491,65.536C401.525,206.309,392.99,234.496,373.209,254.277z"/>
	</g>
</g>
<g>
	<g>
		<circle cx="189.263" cy="183.886" r="16.696"/>
	</g>
</g>
<g>
	<g>
		<circle cx="322.828" cy="183.886" r="16.696"/>
	</g>
</g>
<g>
	<g>
		<path d="M301.162,249.76c-6.518-6.52-17.09-6.52-23.609,0l-21.586,21.586L234.38,249.76c-6.519-6.519-17.091-6.519-23.611,0
			c-6.52,6.519-6.52,17.091,0,23.611l33.391,33.391c3.26,3.26,7.533,4.891,11.805,4.891s8.546-1.631,11.805-4.891l33.391-33.391
			C307.682,266.852,307.682,256.281,301.162,249.76z"/>
	</g>
</g>
<g>
	<g>
		<path d="M504.483,165.403C492.228,65.835,425.314,0,322.749,0H189.184C86.188,0,19.737,67.453,7.52,166.701
			c-12.377,100.543,33.264,219.321,129.132,290.63c34.07,25.343,72.851,43.569,115.266,54.171c2.658,0.666,5.439,0.666,8.099,0
			c42.153-10.538,80.785-28.781,114.822-54.225C469.31,386.656,517.081,267.725,504.483,165.403z M255.964,478.065
			C-6.471,408.691-34.36,33.391,189.184,33.391h133.565c82.554,0,138.104,50.875,148.594,136.092
			C485.848,287.304,407.633,437.856,255.964,478.065z"/>
	</g>
</g>
</svg>