<svg width="105" height="105" viewBox="0 0 105 105" fill="none" xmlns="http://www.w3.org/2000/svg">
<path d="M52.5 50.3125C49.5992 50.3125 46.8172 49.1602 44.766 47.109C42.7148 45.0578 41.5625 42.2758 41.5625 39.375C41.5625 36.4742 42.7148 33.6922 44.766 31.641C46.8172 29.5898 49.5992 28.4375 52.5 28.4375C55.4008 28.4375 58.1828 29.5898 60.234 31.641C62.2852 33.6922 63.4375 36.4742 63.4375 39.375C63.4375 40.8113 63.1546 42.2336 62.6049 43.5606C62.0553 44.8876 61.2496 46.0933 60.234 47.109C59.2183 48.1246 58.0126 48.9303 56.6856 49.4799C55.3586 50.0296 53.9363 50.3125 52.5 50.3125ZM52.5 8.75C44.3777 8.75 36.5882 11.9766 30.8449 17.7199C25.1016 23.4632 21.875 31.2527 21.875 39.375C21.875 62.3438 52.5 96.25 52.5 96.25C52.5 96.25 83.125 62.3438 83.125 39.375C83.125 31.2527 79.8984 23.4632 74.1551 17.7199C68.4118 11.9766 60.6223 8.75 52.5 8.75Z" fill="#124A26"/>
<circle cx="51.5094" cy="35.6604" r="17.8302" fill="#124A26"/>
<path d="M45.8284 21.5792C47.909 21.2795 50.113 23.554 50.7478 26.6925C51.3825 29.8134 50.2364 32.5993 48.1559 32.9167C46.0929 33.234 43.8713 30.9595 43.2189 27.821C42.5665 24.7001 43.7478 21.9143 45.8284 21.5792ZM58.4354 21.5792C60.5336 21.9143 61.6973 24.7001 61.0802 27.821C60.4102 30.9595 58.2061 33.234 56.1256 32.9167C54.0273 32.5993 52.8813 29.8134 53.5336 26.6925C54.1684 23.554 56.3724 21.2795 58.4354 21.5792ZM36.3953 29.69C38.4053 28.826 41.1383 30.3953 42.5665 33.1283C43.9065 35.9141 43.4481 38.841 41.4557 39.705C39.4632 40.569 36.7479 39.0174 35.355 36.2491C33.962 33.4809 34.4557 30.5363 36.3953 29.69ZM68.133 29.69C70.0725 30.5363 70.5662 33.4809 69.1733 36.2491C67.7804 39.0174 65.065 40.569 63.0726 39.705C61.0802 38.841 60.6217 35.9141 61.9618 33.1283C63.39 30.3953 66.1229 28.826 68.133 29.69ZM65.1884 48.6974C65.259 50.3548 63.9895 52.1885 62.4731 52.8762C59.317 54.322 55.579 51.3246 52.0702 51.3246C48.5614 51.3246 44.7881 54.4454 41.6849 52.8762C39.9217 52.0122 38.7051 49.72 38.9343 47.8158C39.2517 45.1886 42.4078 43.778 44.2768 41.8561C46.7629 39.37 48.5261 34.6975 52.0702 34.6975C55.5966 34.6975 57.4656 39.2995 59.8459 41.8561C61.8031 44.0072 65.065 45.8233 65.1884 48.6974Z" fill="#F5F8E2"/>
</svg>
