<?xml version="1.0" encoding="iso-8859-1"?>
<!-- Uploaded to: SVG Repo, www.svgrepo.com, Generator: SVG Repo Mixer Tools -->
<svg version="1.1" id="Layer_1" xmlns="http://www.w3.org/2000/svg" xmlns:xlink="http://www.w3.org/1999/xlink" 
	 viewBox="0 0 512 512" xml:space="preserve">
<path style="fill:#063718;" d="M83.478,139.13c-9.217,0-16.696-7.473-16.696-16.696V89.043c0-9.223,7.479-16.696,16.696-16.696
	s16.696,7.473,16.696,16.696v33.391C100.174,131.657,92.695,139.13,83.478,139.13z"/>
<path style="fill:#FFA733;" d="M356.174,139.13H155.826c-12.435,0-20.462-13.108-14.935-24.163l33.391-66.783
	c2.826-5.658,8.608-9.228,14.935-9.228h133.565c6.327,0,12.109,3.571,14.935,9.228l33.391,66.783
	C376.636,126.022,368.609,139.13,356.174,139.13z"/>
<path style="fill:#CC7400;" d="M337.717,48.185c-2.826-5.658-8.608-9.228-14.935-9.228H256V139.13h100.174
	c12.435,0,20.462-13.108,14.935-24.163L337.717,48.185z"/>
<path style="fill:#124a26;" d="M0,339.478v83.478c0,27.619,22.468,50.087,50.087,50.087h411.826
	c27.619,0,50.087-22.468,50.087-50.087v-83.478H0z"/>
<path style="fill:#063718;" d="M256,473.043h205.913c27.619,0,50.087-22.468,50.087-50.087v-83.478H256V473.043z"/>
<path style="fill:#124a26;" d="M512,272.696v-116.87c0-27.619-22.468-50.087-50.087-50.087H50.087
	C22.468,105.739,0,128.207,0,155.826v116.87H512z"/>
<path style="fill:#063718;" d="M461.913,105.739H256v166.957h256v-116.87C512,128.207,489.532,105.739,461.913,105.739z"/>
<rect y="239.304" style="fill:#d55f0b;" width="512" height="133.565"/>
<rect x="256" y="239.304" style="fill:#d55f0b;" width="256" height="133.565"/>
<path style="fill:#E7ECFD;" d="M256,406.261c-64.445,0-116.87-52.429-116.87-116.87s52.424-116.87,116.87-116.87
	s116.87,52.429,116.87,116.87S320.445,406.261,256,406.261z"/>
<path style="fill:#DAE0F0;" d="M372.87,289.391c0-64.441-52.424-116.87-116.87-116.87v233.739
	C320.445,406.261,372.87,353.832,372.87,289.391z"/>
<path style="fill:#696B6F;" d="M256,205.913c-46.032,0-83.478,37.446-83.478,83.478S209.968,372.87,256,372.87
	s83.478-37.446,83.478-83.478S302.032,205.913,256,205.913z"/>
<path style="fill:#616267;" d="M339.478,289.391c0-46.032-37.446-83.478-83.478-83.478V372.87
	C302.032,372.87,339.478,335.423,339.478,289.391z"/>
<path style="fill:#5AAAE7;" d="M256,339.478c-27.619,0-50.087-22.468-50.087-50.087s22.468-50.087,50.087-50.087
	s50.087,22.468,50.087,50.087S283.619,339.478,256,339.478z"/>
<circle style="fill:#FF5F4A;" cx="83.478" cy="189.217" r="16.696"/>
<path style="fill:#E6C892;" d="M428.522,205.913h-38.957c-9.217,0-16.696-7.473-16.696-16.696s7.479-16.696,16.696-16.696h38.957
	c9.217,0,16.696,7.473,16.696,16.696S437.739,205.913,428.522,205.913z"/>
<path style="fill:#96C8EF;" d="M256,272.696c-9.206,0-16.696,7.49-16.696,16.696c0,9.206,7.49,16.696,16.696,16.696
	s16.696-7.49,16.696-16.696C272.696,280.185,265.206,272.696,256,272.696z"/>
<path style="fill:#1E81CE;" d="M306.087,289.391c0-27.619-22.468-50.087-50.087-50.087v100.174
	C283.619,339.478,306.087,317.01,306.087,289.391z"/>
<path style="fill:#5AAAE7;" d="M272.696,289.391c0-9.206-7.49-16.696-16.696-16.696v33.391
	C265.206,306.087,272.696,298.597,272.696,289.391z"/>
</svg>