<?xml version="1.0" encoding="iso-8859-1"?>
<!-- Uploaded to: SVG Repo, www.svgrepo.com, Generator: SVG Repo Mixer Tools -->
<svg fill="#063718" height="800px" width="800px" version="1.1" id="Layer_1" xmlns="http://www.w3.org/2000/svg" xmlns:xlink="http://www.w3.org/1999/xlink" 
	 viewBox="0 0 512 512" xml:space="preserve">
<g>
	<g>
		<path d="M256,239.304c-27.618,0-50.087,22.469-50.087,50.087s22.469,50.087,50.087,50.087c27.618,0,50.087-22.469,50.087-50.087
			S283.618,239.304,256,239.304z M256,306.087c-9.206,0-16.696-7.49-16.696-16.696s7.49-16.696,16.696-16.696
			c9.206,0,16.696,7.49,16.696,16.696S265.206,306.087,256,306.087z"/>
	</g>
</g>
<g>
	<g>
		<path d="M461.913,105.739h-95.421l-28.777-57.553c-2.827-5.656-8.608-9.229-14.933-9.229H189.217
			c-6.324,0-12.104,3.573-14.934,9.229l-28.777,57.553h-45.333V89.044c0-9.22-7.475-16.696-16.696-16.696
			s-16.696,7.475-16.696,16.696v16.696H50.087C22.469,105.739,0,128.208,0,155.826v267.13c0,27.618,22.469,50.087,50.087,50.087
			h411.826c27.618,0,50.087-22.469,50.087-50.087v-267.13C512,128.208,489.531,105.739,461.913,105.739z M199.536,72.348h112.928
			l16.696,33.391h-146.32L199.536,72.348z M33.391,272.696h106.937c-0.784,5.455-1.198,11.027-1.198,16.696
			c0,17.914,4.057,34.898,11.292,50.087H33.391V272.696z M478.609,422.957c0,9.206-7.49,16.696-16.696,16.696H50.087
			c-9.206,0-16.696-7.49-16.696-16.696V372.87h140.907c21.088,20.643,49.931,33.391,81.702,33.391
			c31.771,0,60.614-12.749,81.702-33.391h140.907V422.957z M172.522,289.391c0-46.03,37.448-83.478,83.478-83.478
			s83.478,37.448,83.478,83.478S302.03,372.87,256,372.87S172.522,335.421,172.522,289.391z M478.609,339.478H361.578
			c7.235-15.189,11.292-32.173,11.292-50.087c0-5.669-0.414-11.241-1.198-16.696h106.937V339.478z M478.609,239.304H361.578
			c-18.79-39.45-59.05-66.783-105.578-66.783s-86.787,27.333-105.578,66.783H33.391v-83.478c0-9.206,7.49-16.696,16.696-16.696
			c4.088,0,400.907,0,411.826,0c9.206,0,16.696,7.49,16.696,16.696V239.304z"/>
	</g>
</g>
<g>
	<g>
		<circle cx="83.478" cy="189.217" r="16.696"/>
	</g>
</g>
<g>
	<g>
		<path d="M428.522,172.522h-38.957c-9.22,0-16.696,7.475-16.696,16.696s7.475,16.696,16.696,16.696h38.957
			c9.22,0,16.696-7.475,16.696-16.696S437.742,172.522,428.522,172.522z"/>
	</g>
</g>
</svg>