<?xml version="1.0" encoding="iso-8859-1"?>
<!-- Uploaded to: SVG Repo, www.svgrepo.com, Generator: SVG Repo Mixer Tools -->
<svg height="800px" width="800px" version="1.1" id="Layer_1" xmlns="http://www.w3.org/2000/svg" xmlns:xlink="http://www.w3.org/1999/xlink" 
	 viewBox="0 0 512 512" xml:space="preserve">
<path style="fill:#696B6F;" d="M83.478,272.696H16.696C7.475,272.696,0,265.221,0,256v-83.478h50.087
	c27.662,0,50.087,22.424,50.087,50.087V256C100.174,265.221,92.699,272.696,83.478,272.696z"/>
<path style="fill:#616267;" d="M294.957,272.696c-9.217,0-16.696-7.473-16.696-16.696V55.652c0-9.223,7.479-16.696,16.696-16.696
	c9.217,0,16.696,7.473,16.696,16.696V256C311.652,265.223,304.174,272.696,294.957,272.696z"/>
<path style="fill:#696B6F;" d="M16.696,272.696C7.479,272.696,0,265.223,0,256V86.565c0-9.223,7.479-16.696,16.696-16.696
	s16.696,7.473,16.696,16.696V256C33.391,265.223,25.913,272.696,16.696,272.696z"/>
<path style="fill:#616267;" d="M294.957,172.522c-4.272,0-8.544-1.631-11.804-4.892c-6.521-6.516-6.521-17.092,0-23.609
	L383.327,43.847c6.521-6.521,17.087-6.521,23.609,0c6.521,6.516,6.521,17.092,0,23.609L306.761,167.63
	C303.5,170.891,299.228,172.522,294.957,172.522z"/>
<path style="fill:#d55f0b;" d="M428.522,38.957H294.957H116.87H47.608C21.358,38.957,0,60.315,0,86.565
	c0,9.223,7.479,16.696,16.696,16.696s16.696-7.473,16.696-16.696c0-7.837,6.38-14.217,14.217-14.217h69.261h178.087h133.565
	c9.217,0,16.696-7.473,16.696-16.696S437.739,38.957,428.522,38.957z"/>
<path style="fill:#d55f0b;" d="M428.522,38.957H294.957H256v33.391h38.957h133.565c9.217,0,16.696-7.473,16.696-16.696
	S437.739,38.957,428.522,38.957z"/>
<path style="fill:#B7B9C4;" d="M395.142,272.701c-6.125,0-12.016-3.386-14.946-9.234l-33.391-66.783
	c-4.119-8.25-0.777-18.277,7.467-22.402c8.239-4.114,18.277-0.782,22.402,7.467l33.391,66.783c4.119,8.25,0.777,18.277-7.467,22.402
	C400.201,272.13,397.653,272.701,395.142,272.701z"/>
<path style="fill:#124a26;" d="M495.304,406.261h-33.391c-9.223,0-16.696-7.473-16.696-16.696s7.473-16.696,16.696-16.696h33.391
	c9.217,0,16.696,7.473,16.696,16.696S504.521,406.261,495.304,406.261z"/>
<path style="fill:#696B6F;" d="M217.043,272.696h-66.783c-9.223,0-16.696-7.473-16.696-16.696v-66.783
	c0-9.223,7.473-16.696,16.696-16.696h33.391c27.619,0,50.087,22.468,50.087,50.087V256
	C233.739,265.223,226.266,272.696,217.043,272.696z"/>
<path style="fill:#87b139;" d="M395.13,239.304H0v150.261c0,9.22,7.475,16.696,16.696,16.696h461.913v-83.478
	C478.609,276.679,441.234,239.304,395.13,239.304z"/>
<path style="fill:#648828;" d="M395.13,239.304H256v166.957h222.609v-83.478C478.609,276.678,441.234,239.304,395.13,239.304z"/>
<path style="fill:#d55f0b;" d="M239.304,339.478h-33.391c-9.223,0-16.696-7.473-16.696-16.696s7.473-16.696,16.696-16.696h33.391
	c9.223,0,16.696,7.473,16.696,16.696S248.527,339.478,239.304,339.478z"/>
<path style="fill:#696B6F;" d="M100.174,473.044c-36.826,0-66.783-29.956-66.783-66.783s29.956-66.783,66.783-66.783
	s66.783,29.956,66.783,66.783S137,473.044,100.174,473.044z"/>
<path style="fill:#616267;" d="M166.957,406.261c0-36.826-29.956-66.783-66.783-66.783v133.565
	C137,473.044,166.957,443.087,166.957,406.261z"/>
<path style="fill:#E7ECFD;" d="M100.174,372.87c-18.413,0-33.391,14.978-33.391,33.391s14.978,33.391,33.391,33.391
	s33.391-14.978,33.391-33.391S118.587,372.87,100.174,372.87z"/>
<path style="fill:#DAE0F0;" d="M133.565,406.261c0-18.413-14.978-33.391-33.391-33.391v66.783
	C118.587,439.652,133.565,424.674,133.565,406.261z"/>
<path style="fill:#696B6F;" d="M378.435,473.044c-36.826,0-66.783-29.956-66.783-66.783s29.956-66.783,66.783-66.783
	s66.783,29.956,66.783,66.783S415.261,473.044,378.435,473.044z"/>
<path style="fill:#616267;" d="M445.217,406.261c0-36.826-29.956-66.783-66.783-66.783v133.565
	C415.261,473.044,445.217,443.087,445.217,406.261z"/>
<path style="fill:#E7ECFD;" d="M378.435,372.87c-18.413,0-33.391,14.978-33.391,33.391s14.978,33.391,33.391,33.391
	c18.413,0,33.391-14.978,33.391-33.391S396.848,372.87,378.435,372.87z"/>
<path style="fill:#DAE0F0;" d="M411.826,406.261c0-18.413-14.978-33.391-33.391-33.391v66.783
	C396.848,439.652,411.826,424.674,411.826,406.261z"/>
</svg>