<?xml version="1.0" encoding="iso-8859-1"?>
<!-- Uploaded to: SVG Repo, www.svgrepo.com, Generator: SVG Repo Mixer Tools -->
<svg height="800px" width="800px" version="1.1" id="Layer_1" xmlns="http://www.w3.org/2000/svg" xmlns:xlink="http://www.w3.org/1999/xlink" 
	 viewBox="0 0 512 512" xml:space="preserve">
<path style="fill:#063718;" d="M256,77.913c-9.217,0-16.696-7.473-16.696-16.696V16.696C239.304,7.473,246.783,0,256,0
	s16.584,7.473,16.584,16.696v44.522C272.584,70.44,265.217,77.913,256,77.913z"/>
<path style="fill:#063718;" d="M272.584,61.217V16.696C272.584,7.473,265.217,0,256,0v77.913
	C265.217,77.913,272.584,70.44,272.584,61.217z"/>
<path style="fill:#063718;" d="M456.348,512H55.652c-9.217,0-16.696-7.473-16.696-16.696V294.957
	c0-9.223,7.479-16.696,16.696-16.696h400.696c9.217,0,16.584,7.473,16.584,16.696v200.348C472.932,504.527,465.565,512,456.348,512z
	"/>
<path style="fill:#063718;" d="M456.348,278.261H256V512h200.348c9.217,0,16.584-7.473,16.584-16.696V294.957
	C472.932,285.734,465.565,278.261,456.348,278.261z"/>
<path style="fill:#d55f0b;" d="M505.99,290.95l-4.896-19.256C472.041,155.27,376.988,66.226,259.005,44.744
	c-1.003-0.223-2.002-0.223-3.005-0.223s-2.002,0-3.005,0.223C135.012,66.226,39.959,155.27,10.908,271.694L6.01,290.95
	c-2.559,10.463,5.454,20.703,16.25,20.703h467.478C500.536,311.652,508.548,301.412,505.99,290.95z"/>
<path style="fill:#f97316;" d="M489.739,311.652H256V44.522c1.003,0,2.002,0,3.005,0.223
	c117.983,21.482,213.035,110.525,242.087,226.95l4.896,19.256C508.548,301.412,500.536,311.652,489.739,311.652z"/>
<path style="fill:#f97316;" d="M168.997,311.652c4.679-37.955,10.474-70.755,12.307-80.353c1.729-9.055-4.217-17.799-13.272-19.527
	c-9.109-1.712-17.815,4.212-19.533,13.277c-1.894,9.947-8.218,45.649-13.133,86.604h33.631V311.652z"/>
<path style="fill:#87b139;" d="M337.799,311.652h33.481c-3.927-41.235-4.902-71.502-7.78-86.604
	c-1.729-9.066-10.467-14.995-19.533-13.277c-9.055,1.729-15,10.473-13.272,19.527C331.739,236.759,335.044,280.844,337.799,311.652z
	"/>
<path style="fill:#D6A246;" d="M272.584,311.652v-83.478c0-9.223-7.367-16.696-16.584-16.696c-9.217,0-16.696,7.473-16.696,16.696
	v83.478H272.584z"/>
<path style="fill:#87b139;" d="M272.584,311.652v-83.478c0-9.223-7.367-16.696-16.584-16.696v100.174H272.584z"/>
<path style="fill:#696B6F;" d="M322.671,512H189.217V411.826c0-36.883,29.9-66.783,66.783-66.783l0,0
	c36.883,0,66.671,29.9,66.671,66.783V512z"/>
<path style="fill:#616267;" d="M322.671,512V411.826c0-36.883-29.788-66.783-66.671-66.783V512H322.671z"/>
</svg>