<svg width="102" height="104" viewBox="0 0 102 104" fill="none" xmlns="http://www.w3.org/2000/svg">
<path d="M100.448 41.1306L100.448 41.1307L100.45 41.152L100.454 41.173L100.454 41.1732L100.455 41.1737L100.455 41.1773L100.458 41.1938C100.461 41.2089 100.465 41.232 100.47 41.2631C100.481 41.3253 100.496 41.419 100.514 41.5426C100.552 41.7899 100.602 42.1567 100.653 42.6294C100.756 43.5748 100.865 44.9432 100.884 46.6256C100.922 49.9918 100.602 54.6067 99.1742 59.6044C96.3247 69.5783 89.0554 81.1127 71.2825 87.2989C56.5825 92.4155 45.5373 98.6512 39.0976 102.784C42.1543 94.4153 49.0252 83.0447 64.4782 73.1169C75.694 65.9114 82.142 57.488 83.4889 48.056C85.25 35.724 77.464 26.6179 77.1207 26.2233L76.7924 25.8462L76.4153 26.1743L71.5704 30.3897L71.192 30.7189L71.5224 31.0962C71.5219 31.0956 71.6156 31.2046 71.778 31.4149C71.9394 31.6239 72.1673 31.9313 72.436 32.3278C72.9736 33.1212 73.673 34.2689 74.3303 35.6973C75.646 38.5568 76.7825 42.5178 76.1414 47.0066C75.1272 54.1073 69.9161 60.8016 60.4666 66.8724L60.7368 67.2931L60.4666 66.8724C45.7383 76.3349 38.0906 87.1434 34.1361 95.4379C33.9585 91.3816 34.1189 87.2919 34.8342 83.7483C35.6719 79.5989 37.249 76.3015 39.8226 74.6149C56.4636 63.7102 58.9349 44.9156 59.0342 44.1022L59.0948 43.606L58.5987 43.5453L52.2247 42.7653L51.7286 42.7045L51.6677 43.2006L51.6674 43.2026C51.6671 43.2048 51.6666 43.2086 51.6658 43.2144L51.6605 43.2533C51.6557 43.2869 51.6486 43.3355 51.6389 43.3983C51.6194 43.524 51.5894 43.7068 51.5465 43.9408C51.4606 44.4089 51.3231 45.0821 51.1151 45.9153C50.699 47.5822 50.0016 49.8866 48.8729 52.4691C46.6144 57.6366 42.6389 63.896 35.755 68.4071C29.7822 72.3211 26.783 80.2458 26.6546 91.7253C26.6201 94.8235 26.8046 97.913 27.1039 100.791C19.6134 91.7277 18.7771 85.0076 19.7738 80.5644C20.2977 78.2286 21.3357 76.4829 22.2418 75.3218C22.6947 74.7413 23.1137 74.3083 23.4169 74.0223C23.5684 73.8794 23.6908 73.7734 23.7736 73.7044C23.8151 73.6699 23.8466 73.6446 23.8669 73.6286L23.8889 73.6116L23.893 73.6084L23.8932 73.6082L23.8935 73.608C23.8935 73.6081 23.8934 73.6081 23.8914 73.6055L23.4136 72.7413C16.4322 75.4446 12.8721 74.7755 11.083 73.1417C9.37279 71.58 9.05759 68.9551 9.18204 66.7246C15.6382 66.4834 21.5731 64.1298 25.3694 58.4784L25.6482 58.0633L25.2332 57.7845L19.9025 54.2036L19.4875 53.9248L19.2087 54.3398C17.3395 57.1222 14.3393 58.9103 10.9582 59.2553L5.78642 59.3902C5.51935 58.4363 5.5482 57.4474 5.66245 56.6508C5.72585 56.2087 5.81415 55.8354 5.8862 55.5739C5.92217 55.4433 5.95391 55.3413 5.97619 55.2732C5.98732 55.2391 5.99607 55.2136 6.00178 55.1973L6.00797 55.1798L6.00909 55.1768L6.00918 55.1765L6.0092 55.1765L6.00925 55.1763L6.00931 55.1762L6.15379 54.7872L5.79724 54.5737C3.83078 53.3962 2.58745 52.191 1.88149 51.0044C1.18138 49.8277 0.994789 48.6452 1.18093 47.4675C1.55969 45.0712 3.49314 42.6348 6.03256 40.4136C8.5521 38.2098 11.5782 36.2947 13.9848 34.9269C15.186 34.2441 16.2285 33.7001 16.9701 33.3271C17.3408 33.1406 17.6361 32.997 17.8382 32.9003C17.9393 32.8519 18.017 32.8152 18.0692 32.7908L18.128 32.7634L18.1425 32.7567L18.1459 32.7551L18.1467 32.7548C18.1468 32.7547 18.1468 32.7547 17.9473 32.3197L18.1468 32.7547L18.414 32.6322L18.4368 32.3401L18.4368 32.34L18.4368 32.3397L18.4369 32.3392L18.437 32.338L18.4382 32.325C18.4394 32.3124 18.4415 32.2921 18.4448 32.2645C18.4514 32.2092 18.4627 32.1245 18.481 32.0133C18.5176 31.7908 18.5822 31.4626 18.693 31.0517C18.9147 30.2298 19.3212 29.0787 20.0587 27.782C21.5299 25.1951 24.3311 22.0053 29.6654 19.6943L30.1312 19.4925L29.9223 19.0299L29.4666 19.2356C29.9223 19.0299 29.9222 19.0296 29.9221 19.0293L29.9218 19.0287L29.9211 19.0271L29.9192 19.023L29.9134 19.0106C29.9086 19.0005 29.902 18.9868 29.8936 18.9699C29.8767 18.936 29.8525 18.8889 29.8204 18.8307C29.7564 18.7145 29.661 18.5536 29.5315 18.3659C29.273 17.9914 28.8743 17.5041 28.3116 17.052C27.309 16.2467 25.809 15.5744 23.7261 15.8116C23.9355 15.3073 24.2522 14.5956 24.6822 13.7623C25.5509 12.079 26.8755 9.91265 28.7036 7.95772C30.5313 6.00311 32.8474 4.27546 35.6997 3.43762C38.5437 2.60223 41.9627 2.63889 46.0282 4.2788L46.3232 4.39781L46.5554 4.18158L46.5555 4.18153L46.5556 4.18137L46.556 4.18099L46.5576 4.17954L46.5703 4.16815C46.5824 4.15734 46.6019 4.14021 46.6288 4.11734C46.6825 4.07161 46.7657 4.00293 46.8784 3.91599C47.1038 3.74209 47.4472 3.49527 47.9087 3.21289C48.8316 2.64817 50.2269 1.94142 52.0976 1.39091C55.8326 0.291781 61.492 -0.193227 69.1128 2.36162C83.3304 7.12808 91.1602 16.8142 95.4427 25.3234C97.5849 29.5799 98.8375 33.5389 99.5542 36.4328C99.9124 37.8793 100.136 39.0584 100.271 39.8738C100.338 40.2814 100.382 40.598 100.41 40.8115C100.424 40.9183 100.434 40.9992 100.44 41.0529L100.447 41.1128L100.448 41.127L100.448 41.1301L100.448 41.1306ZM31.7533 30.4902L31.5714 30.0245L31.227 30.1589L31.2547 30.5277C31.4128 32.6314 32.0122 34.1888 32.8509 35.3325C33.6893 36.4756 34.7452 37.1762 35.771 37.6005C36.7933 38.0235 37.789 38.1739 38.5247 38.2199C38.8938 38.243 39.2008 38.24 39.4177 38.2311C39.5262 38.2266 39.6125 38.2206 39.673 38.2156C39.7032 38.213 39.727 38.2108 39.744 38.209L39.7642 38.2069L39.7704 38.2062L39.7725 38.2059L39.7732 38.2058C39.7736 38.2058 39.7739 38.2058 39.7142 37.7093L39.7739 38.2058L40.2637 38.1468L40.2113 37.6562C39.9407 35.1217 39.2916 33.3432 38.4338 32.113C37.5706 30.875 36.5131 30.2176 35.4823 29.9038C34.461 29.5929 33.4859 29.6248 32.7754 29.7294C32.4185 29.782 32.1232 29.8536 31.915 29.9129C31.8108 29.9426 31.728 29.9693 31.6698 29.9891C31.6406 29.999 31.6176 30.0073 31.6011 30.0133L31.5813 30.0207L31.5751 30.023L31.5729 30.0239L31.5721 30.0242C31.5718 30.0243 31.5714 30.0245 31.7533 30.4902ZM52.3116 27.2829L52.3744 27.925L52.9806 27.704L52.8093 27.2342C52.9806 27.704 52.9808 27.7039 52.9811 27.7038L52.9818 27.7035L52.9837 27.7028L52.9897 27.7006L53.0099 27.6929C53.0271 27.6864 53.0514 27.677 53.0824 27.6646C53.1444 27.6398 53.233 27.6033 53.344 27.5544C53.5658 27.4568 53.8777 27.3099 54.2447 27.11C54.9768 26.7113 55.9379 26.0966 56.842 25.2348C58.6623 23.4996 60.2573 20.7467 59.2676 16.8027L59.2155 16.5953L59.0295 16.4897L58.7826 16.9244C59.0295 16.4897 59.0292 16.4895 59.0289 16.4893L59.0282 16.4889L59.0263 16.4878L59.021 16.4849L59.0042 16.4757C58.9904 16.4682 58.9711 16.458 58.9465 16.4454C58.8975 16.4202 58.8274 16.3857 58.7376 16.3448C58.5582 16.2632 58.2994 16.1564 57.9721 16.0497C57.3179 15.8365 56.3853 15.6225 55.2619 15.6146C52.997 15.5989 50.0143 16.4225 47.0215 19.6458L46.1398 20.5954L47.4278 20.4844L47.4284 20.4844L47.4285 20.4843L47.4295 20.4843L47.4301 20.4842L47.4311 20.4842C47.4355 20.4839 47.444 20.4835 47.4563 20.4831C47.4811 20.4823 47.5213 20.4818 47.575 20.4834C47.6825 20.4867 47.843 20.4986 48.0404 20.5345C48.4352 20.6063 48.9745 20.773 49.5376 21.1548C50.6454 21.906 51.9481 23.5634 52.3116 27.2829Z" fill="#536F25" stroke="#EAF3D4"/>
</svg>
