<svg width="207" height="107" viewBox="0 0 207 107" fill="none" xmlns="http://www.w3.org/2000/svg">
<path d="M2.48273 48.0402V20.4038H9.16242V42.6154H20.6596V48.0402H2.48273ZM30.7972 20.4038V48.0402H24.1175V20.4038H30.7972ZM61.0751 34.222C61.0751 37.2627 60.4903 39.8401 59.3208 41.9542C58.1513 44.0683 56.568 45.6742 54.5708 46.7717C52.5826 47.8692 50.3516 48.418 47.8776 48.418C45.3947 48.418 43.1591 47.8647 41.1709 46.7582C39.1828 45.6517 37.6039 44.0458 36.4344 41.9407C35.2739 39.8266 34.6937 37.2537 34.6937 34.222C34.6937 31.1813 35.2739 28.6038 36.4344 26.4897C37.6039 24.3756 39.1828 22.7698 41.1709 21.6723C43.1591 20.5747 45.3947 20.026 47.8776 20.026C50.3516 20.026 52.5826 20.5747 54.5708 21.6723C56.568 22.7698 58.1513 24.3756 59.3208 26.4897C60.4903 28.6038 61.0751 31.1813 61.0751 34.222ZM54.2469 34.222C54.2469 32.4227 53.9905 30.9024 53.4778 29.6609C52.974 28.4194 52.2453 27.4793 51.2917 26.8406C50.3471 26.2019 49.2091 25.8825 47.8776 25.8825C46.5552 25.8825 45.4172 26.2019 44.4636 26.8406C43.51 27.4793 42.7768 28.4194 42.264 29.6609C41.7602 30.9024 41.5083 32.4227 41.5083 34.222C41.5083 36.0212 41.7602 37.5416 42.264 38.7831C42.7768 40.0245 43.51 40.9646 44.4636 41.6034C45.4172 42.2421 46.5552 42.5615 47.8776 42.5615C49.2091 42.5615 50.3471 42.2421 51.2917 41.6034C52.2453 40.9646 52.974 40.0245 53.4778 38.7831C53.9905 37.5416 54.2469 36.0212 54.2469 34.222ZM88.4955 20.4038V48.0402H82.8279L71.83 32.0899H71.6546V48.0402H64.9749V20.4038H70.7235L81.5999 36.3271H81.8293V20.4038H88.4955ZM2.48273 89.0402V61.4038H13.8989C15.9681 61.4038 17.7538 61.8086 19.2562 62.6183C20.7675 63.4189 21.9325 64.539 22.7512 65.9784C23.5699 67.4088 23.9792 69.0731 23.9792 70.9713C23.9792 72.8785 23.5609 74.5473 22.7242 75.9777C21.8966 77.3991 20.7136 78.5011 19.1752 79.2838C17.6369 80.0664 15.8106 80.4578 13.6965 80.4578H6.65248V75.195H12.455C13.4626 75.195 14.3038 75.0196 14.9785 74.6687C15.6622 74.3179 16.1795 73.8276 16.5303 73.1978C16.8812 72.5591 17.0566 71.8169 17.0566 70.9713C17.0566 70.1166 16.8812 69.3789 16.5303 68.7582C16.1795 68.1285 15.6622 67.6427 14.9785 67.3008C14.2948 66.959 13.4536 66.788 12.455 66.788H9.16242V89.0402H2.48273ZM29.9099 89.0402H22.731L32.0555 61.4038H40.9483L50.2729 89.0402H43.0939L36.6031 68.3669H36.3872L29.9099 89.0402ZM28.9518 78.1637H43.9575V83.2376H28.9518V78.1637ZM53.2484 89.0402V61.4038H64.6646C66.7337 61.4038 68.5194 61.7771 70.0218 62.5238C71.5332 63.2615 72.6982 64.3231 73.5168 65.7085C74.3355 67.0849 74.7448 68.7177 74.7448 70.6069C74.7448 72.5231 74.3265 74.1514 73.4898 75.4919C72.6532 76.8233 71.4657 77.8399 69.9273 78.5416C68.389 79.2343 66.5673 79.5806 64.4621 79.5806H57.2427V74.3179H63.2207C64.2282 74.3179 65.0694 74.1874 65.7441 73.9265C66.4278 73.6566 66.9451 73.2518 67.2959 72.712C67.6468 72.1633 67.8222 71.4616 67.8222 70.6069C67.8222 69.7523 67.6468 69.0461 67.2959 68.4883C66.9451 67.9216 66.4278 67.4987 65.7441 67.2198C65.0604 66.932 64.2192 66.788 63.2207 66.788H59.928V89.0402H53.2484ZM68.8073 76.4095L75.6894 89.0402H68.4025L61.6553 76.4095H68.8073ZM78.4085 89.0402V61.4038H85.0882V73.0899H85.4525L94.5882 61.4038H102.455L92.6585 73.7376L102.631 89.0402H94.6422L87.7601 78.1772L85.0882 81.5508V89.0402H78.4085Z" fill="#0B2D17"/>
<g clip-path="url(#clip0_206_7)">
<path d="M204.944 42.0255C204.944 42.0255 202.018 12.4695 173.27 2.8317C157.838 -2.34185 150.214 4.75926 150.214 4.75926C133.574 -1.95274 126.94 17.3955 126.94 17.3955C131.725 16.3246 133.465 20.1797 133.465 20.1797C122.589 24.8915 121.937 33.2444 121.937 33.2444C121.937 33.2444 93.4429 46.309 109.539 55.9468C109.539 55.9468 108.583 58.5201 109.423 60.8439L114.988 60.6988C118.523 60.3437 121.665 58.4757 123.622 55.5628L128.953 59.1437C125.184 64.755 119.235 67.039 112.713 67.1824C112.328 71.8481 113.555 79.5873 127.593 74.1517C127.593 74.1517 114.707 83.7595 131.783 103.307C131.38 99.9995 131.112 96.3413 131.153 92.675C131.281 81.251 134.267 73.5446 140.028 69.7695C154.006 60.609 156.142 44.3686 156.162 44.2057L162.536 44.9857C162.44 45.7719 159.991 64.365 143.547 75.1408C138.062 78.7355 137.086 88.9893 137.751 98.4335C141.387 90.0255 148.975 78.363 164.735 68.2373C174.242 62.1297 179.591 55.3279 180.635 48.0215C181.953 38.795 175.958 31.7806 175.897 31.711L180.742 27.4957C181.069 27.871 188.721 36.8279 186.992 48.9295C185.674 58.1653 179.353 66.4793 168.206 73.6404C151.788 84.1886 144.971 96.3755 142.144 104.944C148.328 100.867 159.812 94.1566 175.445 88.7153C211.335 76.2233 204.944 42.0255 204.944 42.0255ZM135.752 31.4344C135.752 31.4344 142.654 28.7397 143.713 38.6535C143.712 38.6535 136.361 39.5377 135.752 31.4344ZM156.808 28.1784C156.06 20.5273 151.386 20.9301 151.386 20.9301C157.182 14.6886 162.781 17.8686 162.781 17.8686C164.651 25.3182 156.808 28.1784 156.808 28.1784Z" fill="#0B2D17"/>
</g>
<defs>
<clipPath id="clip0_206_7">
<rect width="104" height="104" fill="white" transform="translate(102.999 0.944153)"/>
</clipPath>
</defs>
</svg>
