<svg width="207" height="106" viewBox="0 0 207 106" fill="none" xmlns="http://www.w3.org/2000/svg">
<path d="M2.48273 47.8541V20.2177H9.16242V42.4293H20.6596V47.8541H2.48273ZM30.7972 20.2177V47.8541H24.1175V20.2177H30.7972ZM61.0751 34.0359C61.0751 37.0766 60.4903 39.654 59.3208 41.7681C58.1513 43.8822 56.568 45.4881 54.5708 46.5856C52.5826 47.6831 50.3516 48.2319 47.8776 48.2319C45.3947 48.2319 43.1591 47.6786 41.1709 46.5721C39.1828 45.4656 37.6039 43.8597 36.4344 41.7546C35.2739 39.6405 34.6937 37.0676 34.6937 34.0359C34.6937 30.9952 35.2739 28.4177 36.4344 26.3036C37.6039 24.1895 39.1828 22.5837 41.1709 21.4862C43.1591 20.3886 45.3947 19.8399 47.8776 19.8399C50.3516 19.8399 52.5826 20.3886 54.5708 21.4862C56.568 22.5837 58.1513 24.1895 59.3208 26.3036C60.4903 28.4177 61.0751 30.9952 61.0751 34.0359ZM54.2469 34.0359C54.2469 32.2366 53.9905 30.7163 53.4778 29.4748C52.974 28.2333 52.2453 27.2932 51.2917 26.6545C50.3471 26.0158 49.2091 25.6964 47.8776 25.6964C46.5552 25.6964 45.4172 26.0158 44.4636 26.6545C43.51 27.2932 42.7768 28.2333 42.264 29.4748C41.7602 30.7163 41.5083 32.2366 41.5083 34.0359C41.5083 35.8351 41.7602 37.3555 42.264 38.597C42.7768 39.8384 43.51 40.7785 44.4636 41.4173C45.4172 42.056 46.5552 42.3754 47.8776 42.3754C49.2091 42.3754 50.3471 42.056 51.2917 41.4173C52.2453 40.7785 52.974 39.8384 53.4778 38.597C53.9905 37.3555 54.2469 35.8351 54.2469 34.0359ZM88.4955 20.2177V47.8541H82.8279L71.83 31.9038H71.6546V47.8541H64.9749V20.2177H70.7235L81.5999 36.141H81.8293V20.2177H88.4955ZM2.48273 88.8541V61.2177H13.8989C15.9681 61.2177 17.7538 61.6225 19.2562 62.4322C20.7675 63.2329 21.9325 64.3529 22.7512 65.7923C23.5699 67.2227 23.9792 68.887 23.9792 70.7852C23.9792 72.6924 23.5609 74.3612 22.7242 75.7916C21.8966 77.213 20.7136 78.315 19.1752 79.0977C17.6369 79.8803 15.8106 80.2717 13.6965 80.2717H6.65248V75.0089H12.455C13.4626 75.0089 14.3038 74.8335 14.9785 74.4826C15.6622 74.1318 16.1795 73.6415 16.5303 73.0117C16.8812 72.373 17.0566 71.6308 17.0566 70.7852C17.0566 69.9305 16.8812 69.1928 16.5303 68.5721C16.1795 67.9424 15.6622 67.4566 14.9785 67.1147C14.2948 66.7729 13.4536 66.6019 12.455 66.6019H9.16242V88.8541H2.48273ZM29.9099 88.8541H22.731L32.0555 61.2177H40.9483L50.2729 88.8541H43.0939L36.6031 68.1808H36.3872L29.9099 88.8541ZM28.9518 77.9776H43.9575V83.0515H28.9518V77.9776ZM53.2484 88.8541V61.2177H64.6646C66.7337 61.2177 68.5194 61.591 70.0218 62.3377C71.5332 63.0754 72.6982 64.137 73.5168 65.5224C74.3355 66.8988 74.7448 68.5316 74.7448 70.4208C74.7448 72.337 74.3265 73.9653 73.4898 75.3058C72.6532 76.6372 71.4657 77.6538 69.9273 78.3555C68.389 79.0482 66.5673 79.3945 64.4621 79.3945H57.2427V74.1318H63.2207C64.2282 74.1318 65.0694 74.0013 65.7441 73.7404C66.4278 73.4705 66.9451 73.0657 67.2959 72.5259C67.6468 71.9772 67.8222 71.2755 67.8222 70.4208C67.8222 69.5662 67.6468 68.86 67.2959 68.3022C66.9451 67.7355 66.4278 67.3126 65.7441 67.0338C65.0604 66.7459 64.2192 66.6019 63.2207 66.6019H59.928V88.8541H53.2484ZM68.8073 76.2234L75.6894 88.8541H68.4025L61.6553 76.2234H68.8073ZM78.4085 88.8541V61.2177H85.0882V72.9038H85.4525L94.5882 61.2177H102.455L92.6585 73.5515L102.631 88.8541H94.6422L87.7601 77.9911L85.0882 81.3647V88.8541H78.4085Z" fill="#E3F1BC"/>
<g clip-path="url(#clip0_206_12)">
<path d="M204.944 41.8394C204.944 41.8394 202.018 12.2834 173.27 2.64561C157.838 -2.52795 150.214 4.57316 150.214 4.57316C133.574 -2.13884 126.94 17.2094 126.94 17.2094C131.725 16.1385 133.465 19.9936 133.465 19.9936C122.589 24.7054 121.937 33.0583 121.937 33.0583C121.937 33.0583 93.4429 46.1229 109.539 55.7607C109.539 55.7607 108.583 58.3341 109.423 60.6578L114.988 60.5127C118.523 60.1576 121.665 58.2896 123.622 55.3767L128.953 58.9576C125.184 64.5689 119.235 66.8529 112.713 66.9963C112.328 71.662 113.555 79.4012 127.593 73.9656C127.593 73.9656 114.707 83.5734 131.783 103.121C131.38 99.8134 131.112 96.1552 131.153 92.4889C131.281 81.0649 134.267 73.3585 140.028 69.5834C154.006 60.4229 156.142 44.1825 156.162 44.0196L162.536 44.7996C162.44 45.5858 159.991 64.1789 143.547 74.9547C138.062 78.5494 137.086 88.8032 137.751 98.2474C141.387 89.8394 148.975 78.1769 164.735 68.0512C174.242 61.9436 179.591 55.1418 180.635 47.8354C181.953 38.6089 175.958 31.5945 175.897 31.5249L180.742 27.3096C181.069 27.6849 188.721 36.6418 186.992 48.7434C185.674 57.9792 179.353 66.2932 168.206 73.4543C151.788 84.0025 144.971 96.1894 142.144 104.758C148.328 100.681 159.812 93.9705 175.445 88.5292C211.335 76.0372 204.944 41.8394 204.944 41.8394ZM135.752 31.2483C135.752 31.2483 142.654 28.5536 143.713 38.4674C143.712 38.4674 136.361 39.3516 135.752 31.2483ZM156.808 27.9923C156.06 20.3412 151.386 20.7441 151.386 20.7441C157.182 14.5025 162.781 17.6825 162.781 17.6825C164.651 25.1321 156.808 27.9923 156.808 27.9923Z" fill="#E3F1BC"/>
</g>
<defs>
<clipPath id="clip0_206_12">
<rect width="104" height="104" fill="white" transform="translate(102.999 0.758057)"/>
</clipPath>
</defs>
</svg>
